<?xml version="1.0" encoding="UTF-8"?>
<svg width="16px" height="16px" viewBox="0 0 16 16" version="1.1" xmlns="http://www.w3.org/2000/svg" xmlns:xlink="http://www.w3.org/1999/xlink">
    <!-- Generator: Sketch 52.3 (67297) - http://www.bohemiancoding.com/sketch -->
    <title>会员管理</title>
    <desc>Created with Sketch.</desc>
    <g id="会员管理" stroke="none" stroke-width="1" fill="none" fill-rule="evenodd">
        <path d="M8,15 C11.9374354,15 14,13.9823548 14,12 C14,9.47211222 11.2163998,7 8,7 C4.78360021,7 2,9.47211222 2,12 C2,13.9823548 4.06256463,15 8,15 Z M8,16 C4.13400675,16 1,15 1,12 C1,9 4.13400675,6 8,6 C11.8659932,6 15,9 15,12 C15,15 11.8659932,16 8,16 Z" id="椭圆形-copy" fill="#666666" fill-rule="nonzero"></path>
        <path d="M8,7 C9.65685425,7 11,5.65685425 11,4 C11,2.34314575 9.65685425,1 8,1 C6.34314575,1 5,2.34314575 5,4 C5,5.65685425 6.34314575,7 8,7 Z M8,8 C5.790861,8 4,6.209139 4,4 C4,1.790861 5.790861,0 8,0 C10.209139,0 12,1.790861 12,4 C12,6.209139 10.209139,8 8,8 Z" id="椭圆形" fill="#666666" fill-rule="nonzero"></path>
    </g>
</svg>